<?xml version="1.0" encoding="UTF-8" standalone="no"?>
<!-- Created with Inkscape (http://www.inkscape.org/) -->

<svg
   xmlns:dc="http://purl.org/dc/elements/1.1/"
   xmlns:cc="http://creativecommons.org/ns#"
   xmlns:rdf="http://www.w3.org/1999/02/22-rdf-syntax-ns#"
   xmlns:svg="http://www.w3.org/2000/svg"
   xmlns="http://www.w3.org/2000/svg"
   xmlns:sodipodi="http://sodipodi.sourceforge.net/DTD/sodipodi-0.dtd"
   xmlns:inkscape="http://www.inkscape.org/namespaces/inkscape"
   id="svg2"
   version="1.1"
   inkscape:version="0.48.4 r9939"
   width="744.09447"
   height="1052.3622"
   xml:space="preserve"
   sodipodi:docname="Catalan-Pfad.svg"><metadata
     id="metadata8"><rdf:RDF><cc:Work
         rdf:about=""><dc:format>image/svg+xml</dc:format><dc:type
           rdf:resource="http://purl.org/dc/dcmitype/StillImage" /><dc:title></dc:title></cc:Work></rdf:RDF></metadata><defs
     id="defs6" /><sodipodi:namedview
     pagecolor="#ffffff"
     bordercolor="#666666"
     borderopacity="1"
     objecttolerance="10"
     gridtolerance="10"
     guidetolerance="10"
     inkscape:pageopacity="0"
     inkscape:pageshadow="2"
     inkscape:window-width="1920"
     inkscape:window-height="1003"
     id="namedview4"
     showgrid="false"
     inkscape:zoom="1.7940591"
     inkscape:cx="372.04724"
     inkscape:cy="876.51967"
     inkscape:window-x="-9"
     inkscape:window-y="-9"
     inkscape:window-maximized="1"
     inkscape:current-layer="g10" /><g
     id="g10"
     inkscape:groupmode="layer"
     inkscape:label="Catalan-Pfad"
     transform="matrix(1.25,0,0,-1.25,0,1052.3622)"><g
       id="g12"><path
         d="m 76.773,797.011 c 0,-1.449 -1.085,-2.625 -2.425,-2.625 -1.34,0 -2.426,1.176 -2.426,2.625 0,1.449 1.086,2.625 2.426,2.625 1.34,0 2.425,-1.176 2.425,-2.625 z"
         style="fill:#000000;fill-opacity:1;fill-rule:nonzero;stroke:none"
         id="path14" /><path
         d="m 54.547,755.999 c 0,-1.453 -1.086,-2.629 -2.422,-2.629 -1.34,0 -2.426,1.176 -2.426,2.629 0,1.449 1.086,2.625 2.426,2.625 1.336,0 2.422,-1.176 2.422,-2.625 z"
         style="fill:#000000;fill-opacity:1;fill-rule:nonzero;stroke:none"
         id="path16" /><path
         d="m 100.207,755.593 c 0,-1.449 -1.086,-2.625 -2.426,-2.625 -1.336,0 -2.422,1.176 -2.422,2.625 0,1.453 1.086,2.629 2.422,2.629 1.34,0 2.426,-1.176 2.426,-2.629 z"
         style="fill:#000000;fill-opacity:1;fill-rule:nonzero;stroke:none"
         id="path18" /><path
         d="m 77.578,713.573 c 0,-1.453 -1.082,-2.629 -2.422,-2.629 -1.34,0 -2.426,1.176 -2.426,2.629 0,1.45 1.086,2.625 2.426,2.625 1.34,0 2.422,-1.175 2.422,-2.625 z"
         style="fill:#000000;fill-opacity:1;fill-rule:nonzero;stroke:none"
         id="path20" /><path
         d="m 123.645,715.995 c 0,-1.449 -1.086,-2.625 -2.426,-2.625 -1.34,0 -2.426,1.176 -2.426,2.625 0,1.453 1.086,2.629 2.426,2.629 1.34,0 2.426,-1.176 2.426,-2.629 z"
         style="fill:#000000;fill-opacity:1;fill-rule:nonzero;stroke:none"
         id="path22" /><g
         id="g24"
         transform="matrix(1,0,0,-1,0,841.88977)"><path
           d="M 50.91,87.105 C 48.902,75.203 50.941,66.559 54.469,60.336 61.125,48.598 73.078,45.5 73.137,45.484"
           style="fill:none;stroke:#000000;stroke-opacity:1;stroke-width:0.8;stroke-linecap:butt;stroke-linejoin:miter;stroke-miterlimit:4;stroke-dasharray:none"
           id="path26" /></g><path
         d="m 61.777,787.241 -7.82,-6.621 1.668,10.11 c 1.059,-2.368 3.547,-3.766 6.152,-3.489 z"
         style="fill:#000000;fill-opacity:1;fill-rule:evenodd;stroke:none"
         id="path28" /><g
         id="g30"
         transform="matrix(1,0,0,-1,0,841.88977)"><path
           d="M 52.125,85.082 C 60.516,79.984 65.68,73.93 68.84,68.156 74.996,56.898 73.539,46.699 73.539,46.699"
           style="fill:none;stroke:#000000;stroke-opacity:1;stroke-width:0.8;stroke-linecap:butt;stroke-linejoin:miter;stroke-miterlimit:4;stroke-dasharray:none"
           id="path32" /></g><path
         d="m 61.621,767.933 7.715,6.738 -1.512,-10.129 c -1.094,2.348 -3.605,3.711 -6.203,3.391 z"
         style="fill:#000000;fill-opacity:1;fill-rule:evenodd;stroke:none"
         id="path34" /><g
         id="g36"
         transform="matrix(1,0,0,-1,0,841.88977)"><path
           d="m 74.348,46.699 c 0.777,10.457 2.992,18.141 5.761,23.781 6.832,13.922 17.032,15.379 17.27,15.411"
           style="fill:none;stroke:#000000;stroke-opacity:1;stroke-width:0.8;stroke-linecap:butt;stroke-linejoin:miter;stroke-miterlimit:4;stroke-dasharray:none"
           id="path38" /></g><path
         d="m 79.527,780.651 1.063,-10.187 -7.41,7.074 c 2.55,-0.461 5.109,0.805 6.347,3.113 z"
         style="fill:#000000;fill-opacity:1;fill-rule:evenodd;stroke:none"
         id="path40" /><g
         id="g42"
         transform="matrix(1,0,0,-1,0,841.88977)"><path
           d="m 75.559,45.484 c 8.152,4.735 13.55,9.813 17.093,14.676 9.133,12.535 5.961,23.637 5.938,23.711"
           style="fill:none;stroke:#000000;stroke-opacity:1;stroke-width:0.8;stroke-linecap:butt;stroke-linejoin:miter;stroke-miterlimit:4;stroke-dasharray:none"
           id="path44" /></g><path
         d="m 94.82,772.726 -2.804,9.851 8.519,-5.687 c -2.594,0.011 -4.894,-1.676 -5.715,-4.164 z"
         style="fill:#000000;fill-opacity:1;fill-rule:evenodd;stroke:none"
         id="path46" /><g
         id="g48"
         transform="matrix(1,0,0,-1,0,841.88977)"><path
           d="m 98.367,86.902 c 0.781,10.461 2.996,18.141 5.762,23.782 6.836,13.921 17.035,15.379 17.273,15.41"
           style="fill:none;stroke:#000000;stroke-opacity:1;stroke-width:0.8;stroke-linecap:butt;stroke-linejoin:miter;stroke-miterlimit:4;stroke-dasharray:none"
           id="path50" /></g><path
         d="m 103.547,740.448 1.062,-10.187 -7.41,7.07 c 2.551,-0.457 5.114,0.809 6.348,3.117 z"
         style="fill:#000000;fill-opacity:1;fill-rule:evenodd;stroke:none"
         id="path52" /><g
         id="g54"
         transform="matrix(1,0,0,-1,0,841.88977)"><path
           d="m 99.637,86.496 c 8.152,4.734 13.551,9.813 17.093,14.68 9.133,12.531 5.958,23.637 5.938,23.707"
           style="fill:none;stroke:#000000;stroke-opacity:1;stroke-width:0.8;stroke-linecap:butt;stroke-linejoin:miter;stroke-miterlimit:4;stroke-dasharray:none"
           id="path56" /></g><path
         d="m 118.898,731.714 -2.804,9.852 8.519,-5.688 c -2.593,0.012 -4.894,-1.676 -5.715,-4.164 z"
         style="fill:#000000;fill-opacity:1;fill-rule:evenodd;stroke:none"
         id="path58" /><g
         id="g60"
         transform="matrix(1,0,0,-1,0,841.88977)"><path
           d="m 74.137,127.309 c -2.008,-11.899 0.031,-20.547 3.558,-26.766 6.657,-11.738 18.61,-14.84 18.664,-14.852"
           style="fill:none;stroke:#000000;stroke-opacity:1;stroke-width:0.8;stroke-linecap:butt;stroke-linejoin:miter;stroke-miterlimit:4;stroke-dasharray:none"
           id="path62" /></g><path
         d="m 85,747.038 -7.816,-6.621 1.668,10.109 c 1.058,-2.367 3.546,-3.769 6.148,-3.488 z"
         style="fill:#000000;fill-opacity:1;fill-rule:evenodd;stroke:none"
         id="path64" /><g
         id="g66"
         transform="matrix(1,0,0,-1,0,841.88977)"><path
           d="m 76.09,126.5 c 8.394,-5.098 13.555,-11.152 16.715,-16.926 6.156,-11.258 4.699,-21.457 4.699,-21.461"
           style="fill:none;stroke:#000000;stroke-opacity:1;stroke-width:0.8;stroke-linecap:butt;stroke-linejoin:miter;stroke-miterlimit:4;stroke-dasharray:none"
           id="path68" /></g><path
         d="m 85.586,726.519 7.715,6.738 -1.512,-10.133 c -1.094,2.348 -3.601,3.711 -6.203,3.395 z"
         style="fill:#000000;fill-opacity:1;fill-rule:evenodd;stroke:none"
         id="path70" /><g
         id="g72"
         transform="matrix(1,0,0,-1,0,841.88977)"><path
           d="m 172.535,95.184 c 23.633,-0.352 36.953,-0.629 44.457,-0.825 9.688,-0.257 -13.344,0.825 -13.344,0.825"
           style="fill:none;stroke:#000000;stroke-opacity:1;stroke-width:0.8;stroke-linecap:round;stroke-linejoin:miter;stroke-miterlimit:4;stroke-dasharray:none"
           id="path74" /></g><g
         id="g76"
         transform="matrix(-1,-0.0264877,-0.0264877,1,0,841.88977)"><path
           d="m -206.342,-100.036 3.197,-3.196 -11.197,3.195 11.196,3.199 -3.196,-3.198 z"
           style="fill:#000000;fill-opacity:1;fill-rule:evenodd;stroke:#000000;stroke-opacity:1;stroke-width:0.79972;stroke-linecap:butt;stroke-linejoin:miter;stroke-miterlimit:4;stroke-dasharray:none"
           id="path78" /></g><path
         d="m 275.164,722.058 c 0,-1.453 -1.082,-2.629 -2.422,-2.629 -1.34,0 -2.426,1.176 -2.426,2.629 0,1.449 1.086,2.625 2.426,2.625 1.34,0 2.422,-1.176 2.422,-2.625 z"
         style="fill:#000000;fill-opacity:1;fill-rule:nonzero;stroke:none"
         id="path80" /><path
         d="m 301.832,722.46 c 0,-1.449 -1.082,-2.625 -2.422,-2.625 -1.34,0 -2.426,1.176 -2.426,2.625 0,1.453 1.086,2.629 2.426,2.629 1.34,0 2.422,-1.176 2.422,-2.629 z"
         style="fill:#000000;fill-opacity:1;fill-rule:nonzero;stroke:none"
         id="path82" /><path
         d="m 328.5,722.46 c 0,-1.449 -1.082,-2.625 -2.422,-2.625 -1.34,0 -2.426,1.176 -2.426,2.625 0,1.453 1.086,2.629 2.426,2.629 1.34,0 2.422,-1.176 2.422,-2.629 z"
         style="fill:#000000;fill-opacity:1;fill-rule:nonzero;stroke:none"
         id="path84" /><path
         d="m 349.109,749.937 c 0,-1.45 -1.086,-2.625 -2.425,-2.625 -1.34,0 -2.422,1.175 -2.422,2.625 0,1.449 1.082,2.629 2.422,2.629 1.339,0 2.425,-1.18 2.425,-2.629 z"
         style="fill:#000000;fill-opacity:1;fill-rule:nonzero;stroke:none"
         id="path86" /><path
         d="m 366.887,723.675 c 0,-1.453 -1.086,-2.629 -2.422,-2.629 -1.34,0 -2.426,1.176 -2.426,2.629 0,1.449 1.086,2.625 2.426,2.625 1.336,0 2.422,-1.176 2.422,-2.625 z"
         style="fill:#000000;fill-opacity:1;fill-rule:nonzero;stroke:none"
         id="path88" /><path
         d="m 385.879,749.534 c 0,-1.453 -1.086,-2.629 -2.426,-2.629 -1.34,0 -2.422,1.176 -2.422,2.629 0,1.45 1.082,2.625 2.422,2.625 1.34,0 2.426,-1.175 2.426,-2.625 z"
         style="fill:#000000;fill-opacity:1;fill-rule:nonzero;stroke:none"
         id="path90" /><path
         d="m 404.867,722.866 c 0,-1.453 -1.082,-2.629 -2.422,-2.629 -1.34,0 -2.425,1.176 -2.425,2.629 0,1.45 1.085,2.625 2.425,2.625 1.34,0 2.422,-1.175 2.422,-2.625 z"
         style="fill:#000000;fill-opacity:1;fill-rule:nonzero;stroke:none"
         id="path92" /><g
         id="g94"
         transform="matrix(1,0,0,-1,0,841.88977)"><path
           d="m 248.094,119.832 24.242,0 c 26.668,-0.402 26.668,0 26.668,0 l 26.668,-0.402 c 19.801,-28.688 19.801,-28.285 19.801,-28.285"
           style="fill:none;stroke:#000000;stroke-opacity:1;stroke-width:0.8;stroke-linecap:butt;stroke-linejoin:miter;stroke-miterlimit:4;stroke-dasharray:none"
           id="path96" /></g><g
         id="g98"
         transform="matrix(1,0,0,-1,0,841.88977)"><path
           d="m 347.09,92.355 16.969,25.458"
           style="fill:none;stroke:#000000;stroke-opacity:1;stroke-width:0.8;stroke-linecap:butt;stroke-linejoin:miter;stroke-miterlimit:4;stroke-dasharray:none"
           id="path100" /></g><g
         id="g102"
         transform="matrix(1,0,0,-1,0,841.88977)"><path
           d="M 364.867,117.813 383.453,92.762"
           style="fill:none;stroke:#000000;stroke-opacity:1;stroke-width:0.8;stroke-linecap:butt;stroke-linejoin:miter;stroke-miterlimit:4;stroke-dasharray:none"
           id="path104" /></g><g
         id="g106"
         transform="matrix(1,0,0,-1,0,841.88977)"><path
           d="m 383.051,91.953 c 18.988,26.668 19.394,26.668 19.394,26.668 l 26.668,0.402"
           style="fill:none;stroke:#000000;stroke-opacity:1;stroke-width:0.8;stroke-linecap:butt;stroke-linejoin:miter;stroke-miterlimit:4;stroke-dasharray:none"
           id="path108" /></g></g></g></svg>